<svg width="24" height="25" viewBox="0 0 24 25" fill="none" xmlns="http://www.w3.org/2000/svg">
<path d="M22.5 2.74473L16.4948 2.74475V1.25C16.4948 0.835625 16.1591 0.5 15.7448 0.5C15.3304 0.5 14.9948 0.835625 14.9948 1.25V2.74437H8.99475V1.25C8.99475 0.835625 8.65913 0.5 8.24475 0.5C7.83038 0.5 7.49475 0.835625 7.49475 1.25V2.74437H1.5C0.671625 2.74437 0 3.416 0 4.24437V22.9944C0 23.8227 0.671625 24.4944 1.5 24.4944H22.5C23.3284 24.4944 24 23.8227 24 22.9944V4.24437C24 3.41635 23.3284 2.74473 22.5 2.74473ZM22.5 22.9944H1.5V4.24437H7.49475V5C7.49475 5.41435 7.83038 5.75 8.24475 5.75C8.65913 5.75 8.99475 5.41435 8.99475 5V4.24475H14.9948V5.00037C14.9948 5.41475 15.3304 5.75037 15.7448 5.75037C16.1591 5.75037 16.4948 5.41475 16.4948 5.00037V4.24475H22.5V22.9944ZM17.25 12.4947H18.75C19.164 12.4947 19.5 12.1587 19.5 11.7447V10.2447C19.5 9.83073 19.164 9.49473 18.75 9.49473H17.25C16.836 9.49473 16.5 9.83073 16.5 10.2447V11.7447C16.5 12.1587 16.836 12.4947 17.25 12.4947ZM17.25 18.4944H18.75C19.164 18.4944 19.5 18.1587 19.5 17.7444V16.2444C19.5 15.8304 19.164 15.4944 18.75 15.4944H17.25C16.836 15.4944 16.5 15.8304 16.5 16.2444V17.7444C16.5 18.1591 16.836 18.4944 17.25 18.4944ZM12.75 15.4944H11.25C10.836 15.4944 10.5 15.8304 10.5 16.2444V17.7444C10.5 18.1587 10.836 18.4944 11.25 18.4944H12.75C13.164 18.4944 13.5 18.1587 13.5 17.7444V16.2444C13.5 15.8307 13.164 15.4944 12.75 15.4944ZM12.75 9.49473H11.25C10.836 9.49473 10.5 9.83073 10.5 10.2447V11.7447C10.5 12.1587 10.836 12.4947 11.25 12.4947H12.75C13.164 12.4947 13.5 12.1587 13.5 11.7447V10.2447C13.5 9.83035 13.164 9.49473 12.75 9.49473ZM6.75 9.49473H5.25C4.836 9.49473 4.5 9.83073 4.5 10.2447V11.7447C4.5 12.1587 4.836 12.4947 5.25 12.4947H6.75C7.164 12.4947 7.5 12.1587 7.5 11.7447V10.2447C7.5 9.83035 7.164 9.49473 6.75 9.49473ZM6.75 15.4944H5.25C4.836 15.4944 4.5 15.8304 4.5 16.2444V17.7444C4.5 18.1587 4.836 18.4944 5.25 18.4944H6.75C7.164 18.4944 7.5 18.1587 7.5 17.7444V16.2444C7.5 15.8307 7.164 15.4944 6.75 15.4944Z" fill="#202428"/>
</svg>
