<svg width="19" height="22" viewBox="0 0 19 22" fill="none" xmlns="http://www.w3.org/2000/svg">
<path d="M9.09 13.5C4.08 13.5 0 16.86 0 21C0 21.28 0.22 21.5 0.5 21.5H17.68C17.96 21.5 18.18 21.28 18.18 21C18.18 16.86 14.1 13.5 9.09 13.5Z" fill="#A9A9A9"/>
<path d="M12.7998 2.16C11.8998 1.14 10.5598 0.5 9.08984 0.5C7.68984 0.5 6.40984 1.07 5.49984 2.01C4.62984 2.91 4.08984 4.15 4.08984 5.5C4.08984 6.44 4.34984 7.32 4.81984 8.07C5.06984 8.5 5.38984 8.89 5.76984 9.21C6.63984 10.01 7.79984 10.5 9.08984 10.5C10.9198 10.5 12.4998 9.52 13.3698 8.07C13.6298 7.64 13.8298 7.16 13.9398 6.66C14.0398 6.29 14.0898 5.9 14.0898 5.5C14.0898 4.22 13.5998 3.05 12.7998 2.16Z" fill="#A9A9A9"/>
<path d="M10.332 3.5C9.789 3.5 9.303 3.74719 9 4.1264C8.697 3.74719 8.211 3.5 7.668 3.5C6.747 3.5 6 4.20225 6 5.07022C6 5.40449 6.057 5.71348 6.156 6C6.63 7.40449 8.091 8.24438 8.814 8.47472C8.916 8.50843 9.084 8.50843 9.186 8.47472C9.909 8.24438 11.37 7.40449 11.844 6C11.943 5.71348 12 5.40449 12 5.07022C12 4.20225 11.253 3.5 10.332 3.5Z" fill="white"/>
</svg>
