<svg width="21" height="20" viewBox="0 0 21 20" fill="none" xmlns="http://www.w3.org/2000/svg">
<path d="M1.61111 11.1111H8.27778C8.88889 11.1111 9.38889 10.6111 9.38889 10V1.11111C9.38889 0.5 8.88889 0 8.27778 0H1.61111C1 0 0.5 0.5 0.5 1.11111V10C0.5 10.6111 1 11.1111 1.61111 11.1111ZM1.61111 20H8.27778C8.88889 20 9.38889 19.5 9.38889 18.8889V14.4444C9.38889 13.8333 8.88889 13.3333 8.27778 13.3333H1.61111C1 13.3333 0.5 13.8333 0.5 14.4444V18.8889C0.5 19.5 1 20 1.61111 20ZM12.7222 20H19.3889C20 20 20.5 19.5 20.5 18.8889V10C20.5 9.38889 20 8.88889 19.3889 8.88889H12.7222C12.1111 8.88889 11.6111 9.38889 11.6111 10V18.8889C11.6111 19.5 12.1111 20 12.7222 20ZM11.6111 1.11111V5.55556C11.6111 6.16667 12.1111 6.66667 12.7222 6.66667H19.3889C20 6.66667 20.5 6.16667 20.5 5.55556V1.11111C20.5 0.5 20 0 19.3889 0H12.7222C12.1111 0 11.6111 0.5 11.6111 1.11111Z" fill="black"/>
</svg>
