<svg width="51" height="51" viewBox="0 0 51 51" fill="none" xmlns="http://www.w3.org/2000/svg">
<circle cx="25.5044" cy="25.5044" r="25.5044" fill="#A9A9A9"/>
<path d="M25.4961 18.4277C27.3593 18.4277 28.8789 19.9213 28.8789 21.76V25.355L24.2972 25.355C23.9689 25.355 23.7092 25.6102 23.7092 25.9329C23.7092 26.2482 23.9689 26.5108 24.2972 26.5108L28.8789 26.5108L28.8789 30.0983C28.8789 31.9371 27.3593 33.4382 25.4808 33.4382H21.762C19.8912 33.4382 18.3716 31.9446 18.3716 30.1058L18.3716 21.7676C18.3716 19.9213 19.8988 18.4277 21.7697 18.4277L25.4961 18.4277ZM30.7854 23.3438C31.0105 23.1111 31.3783 23.1111 31.6034 23.3363L33.7949 25.5203C33.9075 25.6329 33.9676 25.7755 33.9676 25.9331C33.9676 26.0832 33.9075 26.2333 33.7949 26.3384L31.6034 28.5224C31.4908 28.635 31.3407 28.695 31.1981 28.695C31.048 28.695 30.8979 28.635 30.7854 28.5224C30.5602 28.2972 30.5602 27.9295 30.7854 27.7043L31.9862 26.511H28.879V25.3552H31.9862L30.7854 24.1619C30.5602 23.9367 30.5602 23.569 30.7854 23.3438Z" fill="white"/>
</svg>
