<svg width="24" height="26" viewBox="0 0 24 26" fill="none" xmlns="http://www.w3.org/2000/svg">
<path d="M11.5 16.3L9.705 14.505L9 15.21L11.5 17.71L16 13.21L15.295 12.5L11.5 16.3Z" fill="#202428"/>
<path d="M21.8182 3.07143H18.5455V2.21429C18.5455 1.75963 18.3156 1.32359 17.9064 1.0021C17.4972 0.680612 16.9423 0.5 16.3636 0.5H7.63636C7.05771 0.5 6.50276 0.680612 6.09359 1.0021C5.68442 1.32359 5.45455 1.75963 5.45455 2.21429V3.07143H2.18182C1.60316 3.07143 1.04821 3.25204 0.63904 3.57353C0.229869 3.89502 0 4.33106 0 4.78571V22.7857C0 23.2404 0.229869 23.6764 0.63904 23.9979C1.04821 24.3194 1.60316 24.5 2.18182 24.5H21.8182C22.3968 24.5 22.9518 24.3194 23.361 23.9979C23.7701 23.6764 24 23.2404 24 22.7857V4.78571C24 4.33106 23.7701 3.89502 23.361 3.57353C22.9518 3.25204 22.3968 3.07143 21.8182 3.07143ZM7.63636 2.21429H16.3636V5.64286H7.63636V2.21429ZM21.8182 22.7857H2.18182V4.78571H5.45455V7.35714H18.5455V4.78571H21.8182V22.7857Z" fill="#202428"/>
<path d="M11.5 17.3L9.705 15.505L9 16.21L11.5 18.71L16 14.21L15.295 13.5L11.5 17.3Z" fill="#202428"/>
<path d="M21.8182 4.07143H18.5455V3.21429C18.5455 2.75963 18.3156 2.32359 17.9064 2.0021C17.4972 1.68061 16.9423 1.5 16.3636 1.5H7.63636C7.05771 1.5 6.50276 1.68061 6.09359 2.0021C5.68442 2.32359 5.45455 2.75963 5.45455 3.21429V4.07143H2.18182C1.60316 4.07143 1.04821 4.25204 0.63904 4.57353C0.229869 4.89502 0 5.33106 0 5.78571V23.7857C0 24.2404 0.229869 24.6764 0.63904 24.9979C1.04821 25.3194 1.60316 25.5 2.18182 25.5H21.8182C22.3968 25.5 22.9518 25.3194 23.361 24.9979C23.7701 24.6764 24 24.2404 24 23.7857V5.78571C24 5.33106 23.7701 4.89502 23.361 4.57353C22.9518 4.25204 22.3968 4.07143 21.8182 4.07143ZM7.63636 3.21429H16.3636V6.64286H7.63636V3.21429ZM21.8182 23.7857H2.18182V5.78571H5.45455V8.35714H18.5455V5.78571H21.8182V23.7857Z" fill="#202428"/>
</svg>
